<svg xmlns="http://www.w3.org/2000/svg" viewBox="0 0 281.219 48.913"><path d="M29.192 3.231c-1.894 2.117-2.9 5.014-2.9 8.913v24.735c0 3.9 1 6.8 2.9 8.913s4.791 3.12 8.468 3.12 6.462-1 8.468-3.12c1.894-2.117 2.9-5.014 2.9-8.913V12.033c0-3.788-1-6.8-2.9-8.913S41.225.111 37.548.111s-6.462 1-8.356 3.12m5.57 37.659a4.785 4.785 0 0 1-1-3.677V11.587a5.443 5.443 0 0 1 1-3.677 3.761 3.761 0 0 1 2.785-1 4.279 4.279 0 0 1 2.785 1 4.785 4.785 0 0 1 1 3.677v25.738a5.443 5.443 0 0 1-1 3.677 3.761 3.761 0 0 1-2.785 1 3.868 3.868 0 0 1-2.785-1.114M2.785 3.231C1 5.237 0 8.245 0 12.033v24.735c0 3.9 1 6.8 2.785 8.913s4.68 3.12 8.356 3.12 6.462-1 8.356-3.12 2.785-5.014 2.785-8.913v-6.351h-7.018v6.8a5 5 0 0 1-1 3.565 3.761 3.761 0 0 1-2.785 1 4.279 4.279 0 0 1-2.785-1 4.65 4.65 0 0 1-1-3.565v-25.63a3.854 3.854 0 0 1 .891-3.565 3.761 3.761 0 0 1 2.785-1 4.279 4.279 0 0 1 2.785 1 4.785 4.785 0 0 1 1 3.677v5.125h7.131v-4.568c0-3.788-1-6.8-2.785-8.913S14.819.111 11.142.111s-6.462 1-8.356 3.12M118.1.669v47.575h20.389v-6.8h-12.921V27.52h10.25v-6.8h-10.25V7.465h12.924V.669zm-27.52 0v47.575h11.7c3.788 0 6.574-1 8.468-2.9s2.9-4.68 2.9-8.356v-3.9a14.523 14.523 0 0 0-1.226-6.462 7.672 7.672 0 0 0-4.345-3.788 7.613 7.613 0 0 0 3.677-3.565 14.085 14.085 0 0 0 1.114-6.017v-1.669c0-3.677-.891-6.351-2.563-8.245-1.784-1.782-4.569-2.673-8.469-2.673H90.583zm7.465 6.8h3.565a3.552 3.552 0 0 1 2.9 1.114 6.382 6.382 0 0 1 .891 3.788v2.674c0 1.894-.446 3.231-1.226 3.9a5.051 5.051 0 0 1-3.343 1.114h-2.784V7.465zm0 19.387h3.343a4.935 4.935 0 0 1 3.677 1.226c.78.78 1.114 2.34 1.114 4.568v4.122a5.284 5.284 0 0 1-1 3.677 3.47 3.47 0 0 1-2.9 1h-4.231v-14.6zM74.65.669l-5.125 33.76-5.46-33.76H53.7v47.575h6.462V14.6l5.571 33.648h7.019l5.241-34.098v34.094h7.019V.669zm134.259 2.562c-1.894 2.117-2.9 5.014-2.9 8.913v24.735c0 3.788 1 6.8 2.9 8.913s4.791 3.12 8.468 3.12 6.462-1 8.468-3.12c1.894-2.117 2.9-5.014 2.9-8.913V12.033c0-3.788-1-6.8-2.9-8.913S221.053 0 217.377 0c-3.677.111-6.462 1.114-8.468 3.231m5.571 37.659a4.785 4.785 0 0 1-1-3.677V11.587a5.443 5.443 0 0 1 1-3.677 3.761 3.761 0 0 1 2.785-1 4.279 4.279 0 0 1 2.785 1 4.785 4.785 0 0 1 1 3.677v25.738a5.443 5.443 0 0 1-1 3.677 4.24 4.24 0 0 1-5.571-.111m-59.5-37.659c-1.894 2.117-2.785 5.014-2.785 8.913v24.734c0 3.788 1 6.8 2.785 8.913 1.894 2.117 4.68 3.12 8.356 3.12s6.462-1 8.356-3.12 2.785-5.014 2.785-8.913V21.727h-10.469v6.8h3.343v8.8a5 5 0 0 1-1 3.565 3.761 3.761 0 0 1-2.785 1 4.279 4.279 0 0 1-2.785-1 4.65 4.65 0 0 1-1-3.565v-25.74a5.443 5.443 0 0 1 1-3.677 3.761 3.761 0 0 1 2.785-1 4.279 4.279 0 0 1 2.785 1 4.785 4.785 0 0 1 1 3.677v5.125h7.019v-4.68c0-3.788-1-6.8-2.785-8.913C169.69 1 166.9 0 163.227 0c-3.565.111-6.351 1.114-8.245 3.231M260.83.669v47.575h20.389v-6.8h-12.924V27.409h10.25v-6.8h-10.25V7.465h12.924V.557L260.83.669zm-10.362 0l-5.682 38.773L239.1.669h-7.576l7.354 47.575h11.142L257.376.669zm-71.2 0v47.575h7.465V28.857h2.567a4.847 4.847 0 0 1 3.788 1.337c.78.891 1.114 2.451 1.114 4.68v9.8c0 .557.111 1 .111 1.56a3.254 3.254 0 0 0 .223 1 2.622 2.622 0 0 1 .223.891h7.576a11.752 11.752 0 0 1-.669-2.674 29.189 29.189 0 0 1-.111-3.12v-7.346a20.459 20.459 0 0 0-1-6.351 6.549 6.549 0 0 0-3.9-3.788c3.231-1.56 4.9-4.791 4.9-9.693v-3.788c0-3.677-.891-6.462-2.563-8.245-1.782-1.783-4.568-2.674-8.467-2.674l-11.253.223zm7.465 6.8h3.567a3.552 3.552 0 0 1 2.9 1.114 6.382 6.382 0 0 1 .891 3.788v4.68c0 1.894-.446 3.231-1.226 3.9a5.051 5.051 0 0 1-3.343 1.114h-2.9l.111-14.6z" fill="#836b69"/></svg>