<svg xmlns="http://www.w3.org/2000/svg" viewBox="0 0 394.563 83.496"><defs><filter id="a" x="0" y="0" width="394.563" height="83.496" filterUnits="userSpaceOnUse"><feOffset dy="3"/></filter></defs><path data-name="Path_2856_1_" d="M39.089 4.227c-2.537 2.834-3.879 6.713-3.879 11.935v33.121c0 5.222 1.343 9.1 3.879 11.935S45.5 65.4 50.427 65.4s8.653-1.343 11.339-4.177c2.536-2.835 3.879-6.714 3.879-11.935V16.013c0-5.073-1.343-9.1-3.879-11.935S55.2.049 50.278.049s-8.653 1.343-11.189 4.178m7.46 50.427a6.407 6.407 0 0 1-1.343-4.923V15.416a7.288 7.288 0 0 1 1.343-4.923 5.036 5.036 0 0 1 3.73-1.343 5.73 5.73 0 0 1 3.73 1.343 6.407 6.407 0 0 1 1.343 4.923V49.88a7.288 7.288 0 0 1-1.344 4.92 5.036 5.036 0 0 1-3.73 1.343 5.179 5.179 0 0 1-3.73-1.492M3.73 4.227C1.343 6.912 0 10.94 0 16.013v33.121c0 5.222 1.343 9.1 3.73 11.935s6.27 4.178 11.189 4.178 8.653-1.343 11.189-4.177 3.73-6.714 3.73-11.935v-8.5h-9.4v9.1A6.691 6.691 0 0 1 19.1 54.5a5.036 5.036 0 0 1-3.73 1.343 5.73 5.73 0 0 1-3.73-1.343 6.226 6.226 0 0 1-1.343-4.774v-34.31a5.161 5.161 0 0 1 1.194-4.774A5.036 5.036 0 0 1 15.218 9.3a5.73 5.73 0 0 1 3.73 1.343 6.407 6.407 0 0 1 1.343 4.923v6.863h9.548v-6.118c0-5.073-1.343-9.1-3.73-11.935S19.843.049 14.919.049 6.266 1.392 3.73 4.227M158.145.8v63.7h27.3v-9.1h-17.304V36.751h13.726v-9.1h-13.726V9.9h17.306V.8zm-36.851 0v63.7h15.665c5.073 0 8.8-1.343 11.339-3.879s3.879-6.266 3.879-11.189V44.21a19.447 19.447 0 0 0-1.641-8.653 10.273 10.273 0 0 0-5.819-5.073 10.194 10.194 0 0 0 4.923-4.774 18.86 18.86 0 0 0 1.492-8.056v-2.238c0-4.923-1.194-8.5-3.431-11.04C145.314 1.989 141.584.8 136.362.8h-15.068zm10 9.1h4.774a4.756 4.756 0 0 1 3.879 1.492 8.546 8.546 0 0 1 1.194 5.073v3.581c0 2.536-.6 4.327-1.641 5.222a6.764 6.764 0 0 1-4.476 1.492h-3.73V9.9zm0 25.96h4.476a6.608 6.608 0 0 1 4.923 1.641c1.044 1.044 1.492 3.133 1.492 6.117v5.52a7.075 7.075 0 0 1-1.343 4.923 4.646 4.646 0 0 1-3.879 1.343h-5.673V35.856zM99.959.8L93.1 46 85.786.8H71.911v63.7h8.653V19.444l7.46 45.056h9.4l7.012-45.653V64.5h9.4V.8zm179.778 3.427c-2.536 2.835-3.879 6.714-3.879 11.935v33.121c0 5.073 1.343 9.1 3.879 11.935s6.415 4.177 11.339 4.177 8.653-1.343 11.339-4.177c2.536-2.835 3.879-6.714 3.879-11.935v-33.27c0-5.073-1.343-9.1-3.879-11.935S296-.1 291.076-.1c-4.923.149-8.653 1.492-11.339 4.327m7.46 50.427a6.407 6.407 0 0 1-1.343-4.923V15.416a7.288 7.288 0 0 1 1.343-4.923 5.036 5.036 0 0 1 3.73-1.343 5.73 5.73 0 0 1 3.73 1.343A6.407 6.407 0 0 1 296 15.416V49.88a7.288 7.288 0 0 1-1.343 4.923 5.677 5.677 0 0 1-7.46-.149M207.528 4.227c-2.536 2.835-3.73 6.714-3.73 11.935v33.121c0 5.073 1.343 9.1 3.73 11.935 2.536 2.835 6.266 4.177 11.189 4.177s8.653-1.343 11.189-4.177 3.73-6.714 3.73-11.935v-20.29h-14.024v9.1h4.476V49.88a6.691 6.691 0 0 1-1.343 4.774 5.036 5.036 0 0 1-3.73 1.346 5.73 5.73 0 0 1-3.73-1.343 6.226 6.226 0 0 1-1.343-4.774V15.416a7.288 7.288 0 0 1 1.343-4.923 5.036 5.036 0 0 1 3.73-1.343 5.73 5.73 0 0 1 3.73 1.343 6.407 6.407 0 0 1 1.343 4.923v6.863h9.4v-6.266c0-5.073-1.343-9.1-3.73-11.935-2.537-2.835-6.267-4.178-11.19-4.178-4.774.149-8.5 1.492-11.04 4.327M349.261.8v63.7h27.3v-9.1h-17.304V36.6h13.726v-9.1h-13.726V9.9h17.306V.646L349.261.8zm-13.875 0l-7.609 51.919L320.168.8h-10.145l9.847 63.7h14.919L344.636.8zm-95.334 0v63.7h10V38.541h3.431a6.491 6.491 0 0 1 5.073 1.79c1.044 1.194 1.492 3.282 1.492 6.266v13.129c0 .746.149 1.343.149 2.089a4.357 4.357 0 0 0 .3 1.343 3.511 3.511 0 0 1 .3 1.194h10.145a15.738 15.738 0 0 1-.9-3.581 39.09 39.09 0 0 1-.149-4.177v-9.847a27.4 27.4 0 0 0-1.343-8.5 8.769 8.769 0 0 0-5.222-5.073c4.327-2.089 6.564-6.415 6.564-12.98v-5.076c0-4.923-1.194-8.653-3.431-11.04C264.072 1.69 260.342.5 255.12.5l-15.068.3zm10 9.1h4.774a4.756 4.756 0 0 1 3.879 1.492 8.546 8.546 0 0 1 1.194 5.073v6.266c0 2.536-.6 4.327-1.641 5.222a6.764 6.764 0 0 1-4.476 1.492H249.9l.148-19.545z" transform="translate(9 6.1)" fill="#eeefe7" filter="url(#a)"/></svg>