<svg xmlns="http://www.w3.org/2000/svg" viewBox="0 0 135.125 135.032"><defs><style>.cls-1{fill:#826b69}</style></defs><g id="Group_3259" data-name="Group 3259" transform="translate(-1107.89 1095.63)"><path id="Path_2514" data-name="Path 2514" class="cls-1" d="M642.59 293.911a17.568 17.568 0 0 0-7.56 3.461 72.432 72.432 0 0 1-6.513 4.554l-1.093-2.049 15.849-13.708-.683 7.742zm-5.374 16.489l-.274-9.473c.957-.82 1.913-1.594 2.869-2.414l3.461 8.289-6.057 3.6zm-9.61 5.738c.182-.455.319-.911.456-1.321.683-2.231 1.047-4.508 1.685-6.74a4.141 4.141 0 0 1 1.184-1.958c.546-.5 1.139-1 1.73-1.5l.227 8.38-5.283 3.142zm-5.6-.319c-.182.547-.41 1.093-.638 1.64a18.832 18.832 0 0 1-.82-4.873 52.28 52.28 0 0 1 .82-14.847l4.326 8.152c-1.275 3.325-2.46 6.649-3.689 9.928zm1.275-24.228c2-5.055 2.049-5.01 7.287-6.239.774-.182 1.548-.319 2.277-.547l-.319 4.964-7.15 6.194-2.187-4.144c0-.091.046-.137.092-.228zm-6.6 1.731c-1.366-.638-2.778-1.23-4.145-1.867l2.778-5.784 1.776 6.968-.41.683zm-2.919 14.478l-6.6-2.869.091-2.323 7.332-1a36.09 36.09 0 0 0-.82 6.194zm-7.1 9.837l.273-7.97 6.695 2.915c.046 2.323.183 4.691.364 7.059-2.5-.728-4.918-1.321-7.332-2zm-1.594-25.048c2.6 1.64 5.237 3.233 7.833 4.827l-7.013.956-.82-5.784zm-2.642 21.951c-2.231-3.461-4.418-6.922-6.6-10.338l6.968-1-.365 11.34zm-7.059-.045l.137-.137-1.366-1.73c.592.046 1.138.137 1.731.182a2.588 2.588 0 0 1 2.231 1.457.957.957 0 0 0 .183.273l-2.915-.045zm61.528-5.647a34.2 34.2 0 0 0-.592-4.327l-5.146.638 4.19-4.554a24.056 24.056 0 0 0-.956-2.733l-1.321-1.23-6.331 6.922-2.869-6.786c2.5-.729 6.33-1.822 8.835-2.6a38.263 38.263 0 0 0-1.321-2.323 17.041 17.041 0 0 0-2.368.638c-.638.182-1.23.319-1.868.455l.592-6.057a37.124 37.124 0 0 0-5.74-5.276l-4.782 4.144.228-3.507a31.874 31.874 0 0 0 1.913-2.414 37.025 37.025 0 0 0-6.012-3.006l-.227 3.826a5.646 5.646 0 0 1-3.826 1.822c-3.871.592-4.509.683-6.011-2.232l5.92-4.827a39.889 39.889 0 0 0-5.647-1.093l-1.958 1.594c-.136-.592-.227-1.184-.319-1.776-.592-.046-1.229-.046-1.867-.046h-.455a32.019 32.019 0 0 0 2 9.382c.228.547.5 1.275.273 1.685-.546 1.047-1.138 2.049-1.73 3.1l-1.913-7.515.091-.182-.137-.091-1.594-6.239a30.89 30.89 0 0 0-3.506.5l1.092 4.281-5.054 10.566c-.5-.228-1-.456-1.458-.683a1.961 1.961 0 0 1-.774-1.731c.82-3.1 1.458-6.33 2.824-9.2a18.209 18.209 0 0 1 1.685-2.869c-.774.182-1.594.41-2.368.638-.319.091-.638.228-1 .319a48.41 48.41 0 0 0-1.913 3.324 26.38 26.38 0 0 0-1.639 4.736l-.865-6.285a36.372 36.372 0 0 0-4.1 2.323l.5 3.643a13.843 13.843 0 0 1-2.095-2.55c-.638.455-1.276.957-1.913 1.457a25.136 25.136 0 0 0 4.691 6.057l1.412 10.156-.592.091.045-.045-10.976-10.7a40.251 40.251 0 0 0-2.55 3.643l8.061 7.833-2.323.319c-.046-.046-.091-.137-.137-.182a3.452 3.452 0 0 0-2.05-1.412c-2.095-.41-4.235-.729-6.376-1.093-.319.729-.547 1.457-.82 2.186 1.776.41 3.507.82 5.284 1.23.5.137 1.183.319 1.411.729 1.731 2.642 3.37 5.283 5.237 8.243a121.01 121.01 0 0 0-4.235-.364l-7.788-9.609a36.033 36.033 0 0 0-1.366 5.283l3.1 3.826-3.552-.273c-.091.82-.091 1.685-.137 2.55 2.049.228 4.053.5 6.1.729l1.912 2.368-7.924-.319a37.84 37.84 0 0 0 .546 4.418l13.481.5-12.432 3.727v.045a39.933 39.933 0 0 0 1.5 4.1l18.217-5.465a3.683 3.683 0 0 0 1.092.41 9.912 9.912 0 0 1 2.46 1.23c.592.319 1.5 1 2.186 1.321 1 .41 2.1.82 3.143 1.138-.046 0-.091-.046-.137-.046l.364.091c1.183.592 2.232 1.048 3.279 1.594a21.646 21.646 0 0 1 .592 3.643c.137 1.275.182 2.824.364 4.053.774 4.873 1.5 9.7 2.277 14.573a38.753 38.753 0 0 0 10.156-1.229c-1.093-5.1-2.14-10.2-3.234-15.3a43.4 43.4 0 0 1-.136-6.922c.091-1.139-.091-2.323 0-3.461l11.886-7.1 19.173 1.321a35.238 35.238 0 0 0 .319-4.372l-12.843-.865 1.958-1.184 10.885-1.321z" transform="translate(555.821 -1339.9)"/><path id="Path_2516" data-name="Path 2516" class="cls-1" d="M633.088 414.282a37.653 37.653 0 0 1-26.551-10.93.451.451 0 0 1 .638-.638 36.653 36.653 0 0 0 58.431-9.109.438.438 0 0 1 .774.41 37.711 37.711 0 0 1-27.462 19.811 41.314 41.314 0 0 1-5.83.456z" transform="translate(542.369 -1404.846)"/><path id="Path_2518" data-name="Path 2518" class="cls-1" d="M556.913 375.71a1.029 1.029 0 0 0-.956-.091 1.433 1.433 0 0 0-.774.592 1.2 1.2 0 0 0-.137.956 1.435 1.435 0 0 0 .592.774 1.028 1.028 0 0 0 .957.091 1.434 1.434 0 0 0 .774-.592 1.028 1.028 0 0 0 .091-.956 1.082 1.082 0 0 0-.547-.774m8.562 8.79l-10.384 6.649 1.412 2.231a2.466 2.466 0 0 0 1.776 1.321 3.23 3.23 0 0 0 2.1-.592l.911-.592a3.071 3.071 0 0 0 1.229-1.321 2.155 2.155 0 0 0 0-1.685 1.738 1.738 0 0 0 1.366.638 3.472 3.472 0 0 0 1.548-.592l.592-.364a2.91 2.91 0 0 0 1.366-1.548 2.414 2.414 0 0 0-.5-2l-1.412-2.14zm-4.144 3.6l3.962-2.551.956 1.5a1.586 1.586 0 0 1 .319 1.412 2.364 2.364 0 0 1-1.048 1.093l-.683.41a2.419 2.419 0 0 1-.866.41 1.958 1.958 0 0 1-.729 0 1.681 1.681 0 0 1-.638-.41 5.108 5.108 0 0 1-.592-.729l-.683-1.138zm-5.191 3.324l4.554-2.915.82 1.275a2.22 2.22 0 0 1 .456 1.639 2.12 2.12 0 0 1-1.139 1.366l-.956.592a2.567 2.567 0 0 1-1.549.5 1.774 1.774 0 0 1-1.23-.911l-.956-1.548zm10.2 10.338l-1.548 2.322.546.592 7.06-10.521-.82-.865-10.794 6.6.5.546 2.414-1.457 2.641 2.778zm4.965-7.423l-4.509 6.831-2.505-2.6 7.014-4.235zm.182 15.575l6.74-9.473 2.049 1.457.41-.592-4.782-3.37-.41.592 2.049 1.457-6.74 9.473.683.456zm12.8.819l-2.414 5.283.774.364 5.1-11.249-.774-.319-2.413 5.283-3.51-1.595 2.414-5.283-.729-.319-5.1 11.249.729.319 2.414-5.283 3.507 1.548zm11.34 2.414a1.3 1.3 0 0 0-.5.865 1.2 1.2 0 0 0 .273.956 1.318 1.318 0 0 0 .82.5 1.2 1.2 0 0 0 .956-.273 1.305 1.305 0 0 0 .5-.865 1.2 1.2 0 0 0-.273-.957 1.307 1.307 0 0 0-.866-.5 1.538 1.538 0 0 0-.911.273m11.614-4.235l1.821 12.205 2.641-.41a2.472 2.472 0 0 0 1.913-1.047 3.042 3.042 0 0 0 .319-2.186l-.182-1.047a3.153 3.153 0 0 0-.683-1.685 2.145 2.145 0 0 0-1.549-.683 1.809 1.809 0 0 0 1.139-1 3.213 3.213 0 0 0 .091-1.64l-.091-.683a3 3 0 0 0-.865-1.867 2.59 2.59 0 0 0-2.05-.364l-2.5.41zm1.64 5.283l-.684-4.646 1.731-.273a1.662 1.662 0 0 1 1.412.273 2.544 2.544 0 0 1 .592 1.412l.136.774a3.314 3.314 0 0 1 0 .956 1.179 1.179 0 0 1-.273.638 1.388 1.388 0 0 1-.592.41 4.453 4.453 0 0 1-.911.228l-1.412.228zm.911 6.057l-.82-5.374 1.5-.228a2.431 2.431 0 0 1 1.685.228 2.052 2.052 0 0 1 .774 1.594l.182 1.093a2.653 2.653 0 0 1-.182 1.639 1.841 1.841 0 0 1-1.367.774l-1.776.273zm13.571-5.055l1.5 2.368.774-.273-6.836-10.658-1.093.41 1.73 12.57.683-.273-.364-2.778 3.6-1.366zm-4.827-7.515l4.463 6.877-3.37 1.23-1.093-8.107zm6.74-3.461a2.658 2.658 0 0 0-.365 1 2.277 2.277 0 0 0 .137 1.093 6.24 6.24 0 0 0 .5 1.138l.41.683.683-.41-.456-.728a3.473 3.473 0 0 1-.41-.82 2.582 2.582 0 0 1-.136-.82 1.375 1.375 0 0 1 .228-.729 2.008 2.008 0 0 1 .638-.592 1.593 1.593 0 0 1 1.594-.182 3.4 3.4 0 0 1 1.275 1.275 3.71 3.71 0 0 1 .5 1.457 5.56 5.56 0 0 1-.045 1.5c-.091.5-.183 1.048-.319 1.594a10.14 10.14 0 0 0-.273 1.639 5.6 5.6 0 0 0 .091 1.731 4.629 4.629 0 0 0 .729 1.822l.319.5 4.463-2.732-.364-.638-3.78 2.277-.091-.137a3.512 3.512 0 0 1-.547-1.594 9.33 9.33 0 0 1 0-1.594 10.236 10.236 0 0 1 .273-1.639 10.652 10.652 0 0 0 .273-1.594 9.368 9.368 0 0 0 0-1.594 3.346 3.346 0 0 0-.547-1.548 5.825 5.825 0 0 0-.775-1 2.845 2.845 0 0 0-.91-.592 2.031 2.031 0 0 0-1.048-.137 2.757 2.757 0 0 0-1.184.456 5.306 5.306 0 0 0-.865.911m19.81.546l.547-.638-6.284-10.383-.547-.5-3.6 3.962.547.5 3.051-3.37 6.284 10.429zm3.735-14.209l4.964 3.006.41-.728-10.566-6.422-.41.729 4.964 3.006-2 3.279-4.964-3.006-.409.683 10.566 6.376.409-.683-4.964-3.006 2-3.233zm-3.324-7.287l-.273.774 8.79 3.188a5.964 5.964 0 0 0 1.23.273 2.813 2.813 0 0 0 1.093-.091 2.128 2.128 0 0 0 .911-.547 2.93 2.93 0 0 0 .637-1.048 2.451 2.451 0 0 0 .182-1.23 2.579 2.579 0 0 0-.318-1 3.134 3.134 0 0 0-.775-.774 4.094 4.094 0 0 0-1.093-.546l-8.79-3.188-.274.729 8.79 3.234a2.3 2.3 0 0 1 .82.41 3.508 3.508 0 0 1 .592.546 2.007 2.007 0 0 1 .273.729 1.505 1.505 0 0 1-.136.865 2.482 2.482 0 0 1-.456.774 1.253 1.253 0 0 1-.683.365 2.351 2.351 0 0 1-.82.046 3.811 3.811 0 0 1-.911-.228l-8.79-3.279zm8.972-12.934a1.25 1.25 0 0 0 .865.455 1.056 1.056 0 0 0 .911-.273 1.251 1.251 0 0 0 .455-.82 1.2 1.2 0 0 0-.273-.956 1.25 1.25 0 0 0-.865-.455 1.2 1.2 0 0 0-.957.273 1.249 1.249 0 0 0-.455.865 1.392 1.392 0 0 0 .319.911" transform="translate(570.361 -1391.186)"/><path id="Path_2519" data-name="Path 2519" class="cls-1" d="M539.7 287.989l12.3 1.184.228-2.641a2.631 2.631 0 0 0-.547-2.14 3.267 3.267 0 0 0-2.049-.82l-1.093-.091a3.2 3.2 0 0 0-1.776.273 1.914 1.914 0 0 0-1 1.321 1.968 1.968 0 0 0-.683-1.366 3.145 3.145 0 0 0-1.594-.5l-.683-.045a3.008 3.008 0 0 0-2 .364 2.355 2.355 0 0 0-.865 1.867l-.228 2.6zm5.511-.319l-4.691-.455.182-1.776a1.61 1.61 0 0 1 .638-1.321 2.506 2.506 0 0 1 1.5-.228l.774.091a2.953 2.953 0 0 1 .956.228 1.339 1.339 0 0 1 .546.455 1.12 1.12 0 0 1 .228.683 3.362 3.362 0 0 1 0 .956l-.137 1.366zm6.1.592l-5.374-.5.136-1.548a2.463 2.463 0 0 1 .638-1.594 2.154 2.154 0 0 1 1.73-.364l1.093.091a2.532 2.532 0 0 1 1.548.592 1.868 1.868 0 0 1 .41 1.5l-.182 1.822zm-10.292-10.976l11.886 3.279.228-.774-5.329-1.457.364-1.23a5.464 5.464 0 0 1 .364-.911 2.392 2.392 0 0 1 .5-.638 2.008 2.008 0 0 1 .728-.273 2.285 2.285 0 0 1 1.047.137l1.867.5c.319.091.592.137.82.182a1.46 1.46 0 0 0 .637-.046l.228-.82a1.3 1.3 0 0 1-.729.045c-.273-.045-.5-.091-.774-.137l-1.867-.5a3.218 3.218 0 0 0-1.731-.046 1.855 1.855 0 0 0-1.184 1.093c.045-1.229-.592-2-2-2.414l-1.048-.273a3.1 3.1 0 0 0-2.141.046 2.615 2.615 0 0 0-1.275 1.776l-.592 2.459zm6.057.82l-5.147-1.412.456-1.685a1.785 1.785 0 0 1 .911-1.23 2.49 2.49 0 0 1 1.639 0l1.139.319a3.163 3.163 0 0 1 .957.41 1.522 1.522 0 0 1 .5.592 2.129 2.129 0 0 1 .137.774 4.364 4.364 0 0 1-.182.956l-.41 1.275zm8.243-11.7l2.687.729.365-.729-12.205-3.37-.546 1.048 9.655 8.2.364-.638-2.14-1.822 1.822-3.416zm-8.607-2.368l7.924 2.14-1.685 3.188-6.239-5.328zm4.69-8.061a3.408 3.408 0 0 0 1.321 1.867 3.216 3.216 0 0 0 1.366.683 4.579 4.579 0 0 0 1.366.045 6.226 6.226 0 0 0 1.32-.319c.456-.137.865-.228 1.321-.319a4.044 4.044 0 0 1 1.275-.046 2.167 2.167 0 0 1 1.184.547 2.807 2.807 0 0 1 1 1.366 1.742 1.742 0 0 1-.41 1.548 1.579 1.579 0 0 1-1.412.729 3.073 3.073 0 0 1-1.548-.683l-.547-.41-.5.592.5.41a4.316 4.316 0 0 0 1.048.638 3.1 3.1 0 0 0 1.047.228 2.478 2.478 0 0 0 1-.228 3.565 3.565 0 0 0 .956-.774 3.235 3.235 0 0 0 .592-1.093 2.041 2.041 0 0 0 0-1.047 2.843 2.843 0 0 0-.455-1 5.306 5.306 0 0 0-.865-.911 2.537 2.537 0 0 0-1.321-.638 4.583 4.583 0 0 0-1.366-.046c-.456.046-.911.182-1.366.273-.456.137-.865.228-1.321.319a4.045 4.045 0 0 1-1.275.046 2.166 2.166 0 0 1-1.184-.547 2.806 2.806 0 0 1-1-1.366 1.423 1.423 0 0 1 .41-1.5 1.519 1.519 0 0 1 .683-.546 2.059 2.059 0 0 1 .728-.137 1.681 1.681 0 0 1 .774.228 3.711 3.711 0 0 1 .774.5l.228.182.5-.592-.228-.182a4.305 4.305 0 0 0-1.047-.638 5.086 5.086 0 0 0-1.047-.273 1.909 1.909 0 0 0-1 .228 2.856 2.856 0 0 0-.911.774 2.28 2.28 0 0 0-.592 2.095m7.06-7.97a3.632 3.632 0 0 0 .956 2.095 3.082 3.082 0 0 0 1.184.911 3.267 3.267 0 0 0 1.321.273 13.666 13.666 0 0 0 1.366-.046 6.863 6.863 0 0 1 1.366-.045 5.749 5.749 0 0 1 1.275.182 2.109 2.109 0 0 1 1.047.774 2.882 2.882 0 0 1 .729 1.5 1.634 1.634 0 0 1-.683 1.412 1.575 1.575 0 0 1-1.5.455 2.7 2.7 0 0 1-1.367-.956l-.455-.547-.592.5.41.5a4.052 4.052 0 0 0 .911.865 2.848 2.848 0 0 0 1 .455 2.049 2.049 0 0 0 1.048-.046 3.231 3.231 0 0 0 1.092-.592 2.854 2.854 0 0 0 .775-.956 2.7 2.7 0 0 0 .228-1.047 2.242 2.242 0 0 0-.274-1.048 6.818 6.818 0 0 0-.683-1.047 3.6 3.6 0 0 0-1.184-.911 3.263 3.263 0 0 0-1.321-.273 6.868 6.868 0 0 0-1.366.046c-.455.046-.911.046-1.366.046a5.734 5.734 0 0 1-1.275-.182 2.548 2.548 0 0 1-1.093-.774 2.884 2.884 0 0 1-.729-1.5 1.573 1.573 0 0 1 .683-1.412 1.609 1.609 0 0 1 .774-.41 1.955 1.955 0 0 1 .729 0 1.828 1.828 0 0 1 .728.364 2.822 2.822 0 0 1 .638.638l.227.227.592-.5-.182-.182a4.055 4.055 0 0 0-.911-.865 2.848 2.848 0 0 0-1-.455 2.064 2.064 0 0 0-1.047.046 2.98 2.98 0 0 0-2.049 2.5m18.08 1.412l.729-.41-6.467-3.962.274-6.74-.729.41-.364 7.651-3.188-5.693-.729.41 6.011 10.794.729-.41-2.186-3.917.091-1.594 5.83 3.461zm.956-12.433l7.014 9.291.865-.273-3.734-11.75-.683.228 3.188 9.928-6.694-8.79-1 .319 3.734 11.75.728-.228-3.416-10.477zm10.748 5.237a4.888 4.888 0 0 0 .274 1.23 2.625 2.625 0 0 0 .592.911 1.7 1.7 0 0 0 .911.547 2.725 2.725 0 0 0 1.23.091 3.023 3.023 0 0 0 1.184-.364 2.382 2.382 0 0 0 .774-.729 2.615 2.615 0 0 0 .365-1.047 5.578 5.578 0 0 0 .045-1.23l-.683-6.285a4.878 4.878 0 0 0-.273-1.23 2.636 2.636 0 0 0-.592-.911 1.892 1.892 0 0 0-.911-.547 2.718 2.718 0 0 0-1.23-.091 3.015 3.015 0 0 0-1.184.364 2.382 2.382 0 0 0-.774.729 2.611 2.611 0 0 0-.365 1.047 5.858 5.858 0 0 0-.045 1.275l.683 6.239zm.137-6.421a2.515 2.515 0 0 1 .273-1.685 1.946 1.946 0 0 1 2.915-.319 2.964 2.964 0 0 1 .638 1.594l.683 6.376a2.515 2.515 0 0 1-.273 1.685 1.793 1.793 0 0 1-1.412.82 1.518 1.518 0 0 1-1.5-.5 2.932 2.932 0 0 1-.592-1.594l-.728-6.376zm11.431-3.416a1.961 1.961 0 0 0-.865.592 2.205 2.205 0 0 0-.547.956 4.866 4.866 0 0 0-.273 1.23l-.592 6.285a3.941 3.941 0 0 0 .046 1.275 2.6 2.6 0 0 0 .364 1.047 1.987 1.987 0 0 0 .774.729 3.018 3.018 0 0 0 1.184.364 2.7 2.7 0 0 0 1.23-.137 1.967 1.967 0 0 0 .865-.592 2.773 2.773 0 0 0 .546-.956 4.862 4.862 0 0 0 .273-1.23l.137-1.412-.774-.091-.137 1.457a5.354 5.354 0 0 1-.182.911 1.716 1.716 0 0 1-.41.683 1.545 1.545 0 0 1-.638.41 1.756 1.756 0 0 1-.865.091 2.416 2.416 0 0 1-.865-.273 1.565 1.565 0 0 1-.547-.546 1.949 1.949 0 0 1-.273-.774 3.057 3.057 0 0 1 0-.911l.592-6.376a5.392 5.392 0 0 1 .182-.911 2.308 2.308 0 0 1 .41-.729 1.638 1.638 0 0 1 .638-.456 1.758 1.758 0 0 1 .865-.091 2.42 2.42 0 0 1 .865.273 1.57 1.57 0 0 1 .547.547 2.232 2.232 0 0 1 .273.774 3.022 3.022 0 0 1 0 .911l-.091 1.093.774.091.091-1a3.932 3.932 0 0 0-.046-1.275 2.6 2.6 0 0 0-.364-1.047 2.384 2.384 0 0 0-.774-.729 3.011 3.011 0 0 0-1.184-.364 3.492 3.492 0 0 0-1.23.182m10.839 14.346l.82.228-1.685-7.423 5.055-4.463-.82-.228-5.738 5.1 1.867-6.239-.775-.228-3.552 11.841.774.228 1.275-4.281 1.184-1.048 1.594 6.512zm7.605-4.235l2.323-4.372 3.6 1.913.365-.637-4.281-2.277L614.48 248l4.281 2.277.364-.638-3.6-1.913 2.414-4.554 2.961 1.594.364-.638-3.006-1.639zm10.885-.41l-7.514 9.791.638.5 3.37-4.372 1 .774c.273.228.5.455.683.638a1.578 1.578 0 0 1 .364.729 2.221 2.221 0 0 1 0 .774 2.621 2.621 0 0 1-.5.911L626 253.377a5.246 5.246 0 0 0-.5.729 2.624 2.624 0 0 0-.228.638l.683.5a1.354 1.354 0 0 1 .228-.683 3.236 3.236 0 0 1 .456-.638l1.184-1.5a3.072 3.072 0 0 0 .683-1.549 2.06 2.06 0 0 0-.547-1.5 2.278 2.278 0 0 0 2.96-.957l.638-.865a3.19 3.19 0 0 0 .774-2 2.633 2.633 0 0 0-1.138-1.822l-2.05-1.639zm-3.1 5.328l3.279-4.235 1.366 1.047a1.654 1.654 0 0 1 .774 1.321 2.633 2.633 0 0 1-.638 1.5l-.729.911a5.49 5.49 0 0 1-.729.729 1.515 1.515 0 0 1-.728.228 1.737 1.737 0 0 1-.775-.182 7.843 7.843 0 0 1-.819-.5l-1-.82zm12.98 13.981l-4.782 3.279.455.683 10.156-7.014-.455-.683-4.782 3.279-2.186-3.142 4.782-3.279-.456-.683-10.154 7.011.456.683 4.782-3.279 2.186 3.142zm8.425 1.412l-11.067 5.465.364.729 11.067-5.465-.364-.729zm-7.7 13.617l.683-.228-1.275-3.644 10.975-3.825-.273-.774L638.208 272l1.549 4.418zm1.594 7.7l.728-.137-.592-3.825 11.477-1.822-.137-.82-12.205 1.958.729 4.645z" transform="translate(578.693 -1317.082)"/><path id="Path_2515" data-name="Path 2515" class="cls-1" d="M584.251 209.42a68.216 68.216 0 0 0-10.521.82 66.652 66.652 0 0 0 10.338 132.482 68.235 68.235 0 0 0 10.52-.82 66.652 66.652 0 0 0-10.337-132.482zm-.137 134.213A67.52 67.52 0 0 1 573.64 209.42a69.546 69.546 0 0 1 10.657-.82 67.524 67.524 0 0 1 10.52 134.213 71.5 71.5 0 0 1-10.7.82z" transform="translate(591.252 -1304.23)"/></g></svg>