<svg id="Layer_1" xmlns="http://www.w3.org/2000/svg" viewBox="0 0 58.3 58.3"><style>.st0{fill:#fff}</style><path class="st0" d="M29.2 0C21.4 0 14 3.1 8.5 8.5S0 21.4 0 29.2s3.1 15.2 8.5 20.6 12.9 8.5 20.6 8.5 15.2-3.1 20.6-8.5 8.5-12.9 8.5-20.6S55.3 14 49.8 8.5 36.9 0 29.2 0zm0 5.1c6.4 0 12.5 2.5 17 7s7 10.6 7 17-2.5 12.5-7 17-10.6 7-17 7-12.5-2.5-17-7-7-10.6-7-17 2.5-12.5 7.1-17c4.4-4.4 10.5-7 16.9-7"/><path class="st0" d="M38.5 30l-14.1 8.1c-.3.2-.6.1-.9 0-.3-.2-.4-.5-.4-.8V21c0-.3.2-.6.5-.8.3-.2.6-.2.9 0l14.1 8.2c.3.2.5.5.5.8-.1.3-.3.6-.6.8z"/></svg>