<svg xmlns="http://www.w3.org/2000/svg" viewBox="0 0 16.477 13.387"><path d="M16.008.3a5.5 5.5 0 0 1-2.12.752 3.4 3.4 0 0 0-5.77 3.107A9.414 9.414 0 0 1 1.11.63a3.4 3.4 0 0 0 1.031 4.491 2.185 2.185 0 0 1-1.484-.385 3.276 3.276 0 0 0 2.622 3.322 2.692 2.692 0 0 1-1.415.108A3.214 3.214 0 0 0 4.9 10.473 6.045 6.045 0 0 1 0 11.884a10.213 10.213 0 0 0 5.317 1.5 9.443 9.443 0 0 0 9.514-9.927v-.112a5.864 5.864 0 0 0 1.648-1.74 5.957 5.957 0 0 1-1.885.535A3.611 3.611 0 0 0 16.008.3" fill="#eeefe7" fill-rule="evenodd" data-name="Group 2187"/></svg>