<svg xmlns="http://www.w3.org/2000/svg" viewBox="0 0 281.219 48.913">
  <defs>
    <style>
      .cls-1 {
        fill: #836b69;
      }
    </style>
  </defs>
  <path id="Path_2856_1_" class="cls-1" d="M29.192,3.131c-1.894,2.117-2.9,5.014-2.9,8.913V36.779c0,3.9,1,6.8,2.9,8.913s4.791,3.12,8.468,3.12,6.462-1,8.468-3.12c1.894-2.117,2.9-5.014,2.9-8.913V11.933c0-3.788-1-6.8-2.9-8.913S41.225.011,37.548.011s-6.462,1-8.356,3.12M34.762,40.79a4.785,4.785,0,0,1-1-3.677V11.487a5.443,5.443,0,0,1,1-3.677,3.761,3.761,0,0,1,2.785-1,4.279,4.279,0,0,1,2.785,1,4.785,4.785,0,0,1,1,3.677V37.225a5.443,5.443,0,0,1-1,3.677,3.761,3.761,0,0,1-2.785,1,3.868,3.868,0,0,1-2.785-1.114M2.785,3.131C1,5.137,0,8.145,0,11.933V36.668c0,3.9,1,6.8,2.785,8.913s4.68,3.12,8.356,3.12,6.462-1,8.356-3.12,2.785-5.014,2.785-8.913V30.317H15.264v6.8a5,5,0,0,1-1,3.565,3.761,3.761,0,0,1-2.785,1,4.279,4.279,0,0,1-2.785-1,4.65,4.65,0,0,1-1-3.565V11.487a3.854,3.854,0,0,1,.891-3.565,3.761,3.761,0,0,1,2.785-1,4.279,4.279,0,0,1,2.785,1,4.785,4.785,0,0,1,1,3.677v5.125h7.131V12.156c0-3.788-1-6.8-2.785-8.913S14.819.011,11.142.011s-6.462,1-8.356,3.12M118.1.569V48.144h20.389v-6.8H125.568V27.42h10.25v-6.8h-10.25V7.365h12.924V.569Zm-27.52,0V48.144h11.7c3.788,0,6.574-1,8.468-2.9s2.9-4.68,2.9-8.356v-3.9a14.523,14.523,0,0,0-1.226-6.462,7.672,7.672,0,0,0-4.345-3.788,7.613,7.613,0,0,0,3.677-3.565,14.085,14.085,0,0,0,1.114-6.017V11.487c0-3.677-.891-6.351-2.563-8.245C108.521,1.46,105.736.569,101.836.569H90.583Zm7.465,6.8h3.565a3.552,3.552,0,0,1,2.9,1.114,6.382,6.382,0,0,1,.891,3.788v2.674c0,1.894-.446,3.231-1.226,3.9a5.051,5.051,0,0,1-3.343,1.114H98.048V7.365Zm0,19.387h3.343a4.935,4.935,0,0,1,3.677,1.226c.78.78,1.114,2.34,1.114,4.568v4.122a5.284,5.284,0,0,1-1,3.677,3.47,3.47,0,0,1-2.9,1H98.048v-14.6ZM74.65.569l-5.125,33.76L64.065.569H53.7V48.144h6.462V14.5l5.571,33.648h7.019L77.993,14.05V48.144h7.019V.569ZM208.909,3.131c-1.894,2.117-2.9,5.014-2.9,8.913V36.779c0,3.788,1,6.8,2.9,8.913s4.791,3.12,8.468,3.12,6.462-1,8.468-3.12c1.894-2.117,2.9-5.014,2.9-8.913V11.933c0-3.788-1-6.8-2.9-8.913S221.053-.1,217.377-.1c-3.677.111-6.462,1.114-8.468,3.231M214.48,40.79a4.785,4.785,0,0,1-1-3.677V11.487a5.443,5.443,0,0,1,1-3.677,3.761,3.761,0,0,1,2.785-1,4.279,4.279,0,0,1,2.785,1,4.785,4.785,0,0,1,1,3.677V37.225a5.443,5.443,0,0,1-1,3.677,4.24,4.24,0,0,1-5.571-.111m-59.5-37.659c-1.894,2.117-2.785,5.014-2.785,8.913V36.779c0,3.788,1,6.8,2.785,8.913,1.894,2.117,4.68,3.12,8.356,3.12s6.462-1,8.356-3.12,2.785-5.014,2.785-8.913V21.627H164.007v6.8h3.343v8.8a5,5,0,0,1-1,3.565,3.761,3.761,0,0,1-2.785,1,4.279,4.279,0,0,1-2.785-1,4.65,4.65,0,0,1-1-3.565V11.487a5.443,5.443,0,0,1,1-3.677,3.761,3.761,0,0,1,2.785-1,4.279,4.279,0,0,1,2.785,1,4.785,4.785,0,0,1,1,3.677v5.125h7.019v-4.68c0-3.788-1-6.8-2.785-8.913C169.69.9,166.9-.1,163.227-.1c-3.565.111-6.351,1.114-8.245,3.231M260.83.569V48.144h20.389v-6.8H268.295V27.309h10.25v-6.8h-10.25V7.365h12.924V.457L260.83.569Zm-10.362,0-5.682,38.773L239.1.569h-7.576l7.354,47.575h11.142L257.376.569Zm-71.2,0V48.144h7.465V28.757H189.3a4.847,4.847,0,0,1,3.788,1.337c.78.891,1.114,2.451,1.114,4.68v9.8c0,.557.111,1,.111,1.56a3.254,3.254,0,0,0,.223,1,2.622,2.622,0,0,1,.223.891h7.576a11.752,11.752,0,0,1-.669-2.674,29.189,29.189,0,0,1-.111-3.12V34.885a20.459,20.459,0,0,0-1-6.351,6.549,6.549,0,0,0-3.9-3.788c3.231-1.56,4.9-4.791,4.9-9.693V11.265c0-3.677-.891-6.462-2.563-8.245C197.21,1.237,194.424.346,190.525.346L179.272.569Zm7.465,6.8H190.3a3.552,3.552,0,0,1,2.9,1.114,6.382,6.382,0,0,1,.891,3.788v4.68c0,1.894-.446,3.231-1.226,3.9a5.051,5.051,0,0,1-3.343,1.114h-2.9l.111-14.6Z" transform="translate(0 0.1)"/>
</svg>
