<svg xmlns="http://www.w3.org/2000/svg" viewBox="0 0 98.411 72.697">
  <defs>
    <style>
      .cls-1 {
        fill: #826B69;
      }
    </style>
  </defs>
  <path id="Path_2847" data-name="Path 2847" class="cls-1" d="M20.713,2.189a8.847,8.847,0,0,0-2.071,6.3V26.068a8.819,8.819,0,0,0,2.071,6.3,7.856,7.856,0,0,0,5.995,2.206A7.819,7.819,0,0,0,32.7,32.366a8.847,8.847,0,0,0,2.071-6.3V8.5a8.847,8.847,0,0,0-2.071-6.3A7.849,7.849,0,0,0,26.708.017a7.841,7.841,0,0,0-5.995,2.172M24.7,29a3.571,3.571,0,0,1-.741-2.576V8.167A3.594,3.594,0,0,1,24.7,5.591a2.681,2.681,0,0,1,2-.741,2.748,2.748,0,0,1,2,.741,3.571,3.571,0,0,1,.741,2.576V26.422A3.594,3.594,0,0,1,28.712,29a2.681,2.681,0,0,1-2,.741,2.656,2.656,0,0,1-2-.741M2,2.189A9.08,9.08,0,0,0,0,8.5V26.085a9.034,9.034,0,0,0,2,6.3,7.587,7.587,0,0,0,5.911,2.206c2.61,0,4.58-.724,5.911-2.206a9.063,9.063,0,0,0,2-6.3v-4.5H10.811v4.833a3.547,3.547,0,0,1-.741,2.56,2.738,2.738,0,0,1-2,.724,2.738,2.738,0,0,1-2-.724,3.472,3.472,0,0,1-.741-2.56V8.167a3.594,3.594,0,0,1,.741-2.576,2.681,2.681,0,0,1,2-.741,2.748,2.748,0,0,1,2,.741,3.571,3.571,0,0,1,.741,2.576v3.621h5.018V8.5a9.063,9.063,0,0,0-2-6.3A7.587,7.587,0,0,0,7.915,0,7.639,7.639,0,0,0,2,2.189M83.929.387v33.8H98.411V29.352H89.234v-9.9h7.292V14.634H89.234V5.22h9.178V.387Zm-19.6,0v33.8H72.68c2.678,0,4.681-.69,6.029-2.054a8.137,8.137,0,0,0,2.021-5.961V23.424a10.6,10.6,0,0,0-.892-4.564,5.23,5.23,0,0,0-3.065-2.678,5.194,5.194,0,0,0,2.61-2.509,9.954,9.954,0,0,0,.825-4.294V8.167c0-2.61-.623-4.547-1.852-5.843-1.246-1.3-3.25-1.937-6.012-1.937Zm5.3,4.833h2.56a2.458,2.458,0,0,1,2.054.825A4.287,4.287,0,0,1,74.9,8.706v1.886a3.718,3.718,0,0,1-.842,2.8,3.3,3.3,0,0,1-2.341.775H69.649V5.22Zm0,13.758H71.99a3.361,3.361,0,0,1,2.627.876,4.842,4.842,0,0,1,.791,3.233v2.947a3.726,3.726,0,0,1-.707,2.61,2.705,2.705,0,0,1-2.054.724H69.6V18.978ZM53.062.387l-3.621,24-3.907-24H38.142v33.8h4.631v-23.9l3.974,23.9h5.018L55.436,9.935V34.185h5.018V.387ZM40.314,40.314a8.847,8.847,0,0,0-2.071,6.3V64.193a8.847,8.847,0,0,0,2.071,6.3A7.856,7.856,0,0,0,46.309,72.7,7.882,7.882,0,0,0,52.3,70.491a8.847,8.847,0,0,0,2.071-6.3V46.612a8.847,8.847,0,0,0-2.071-6.3,7.849,7.849,0,0,0-5.995-2.189,7.811,7.811,0,0,0-5.995,2.189m3.991,26.792a3.571,3.571,0,0,1-.741-2.576V46.276a3.594,3.594,0,0,1,.741-2.576,2.681,2.681,0,0,1,2-.741,2.748,2.748,0,0,1,2,.741,3.571,3.571,0,0,1,.741,2.576V64.53a3.594,3.594,0,0,1-.741,2.576,3.08,3.08,0,0,1-4.008,0M2,40.314a9.034,9.034,0,0,0-2,6.3V64.193a9.063,9.063,0,0,0,2,6.3A7.587,7.587,0,0,0,7.915,72.7a7.587,7.587,0,0,0,5.911-2.206,9.063,9.063,0,0,0,2-6.3V53.466H8.4V58.3h2.408V64.53a3.547,3.547,0,0,1-.741,2.56,2.738,2.738,0,0,1-2,.724,2.738,2.738,0,0,1-2-.724,3.472,3.472,0,0,1-.741-2.56V46.276A3.594,3.594,0,0,1,6.062,43.7a2.681,2.681,0,0,1,2-.741,2.748,2.748,0,0,1,2,.741,3.571,3.571,0,0,1,.741,2.576V49.9h5.018V46.612a9.063,9.063,0,0,0-2-6.3c-1.33-1.465-3.3-2.189-5.911-2.189A7.521,7.521,0,0,0,2,40.314M77.16,38.5v33.8H91.642V67.46H82.464v-9.9h7.292V52.725H82.464V43.312h9.178V38.479H77.16Zm-7.325,0L65.776,66.062,61.718,38.5H56.363l5.22,33.8H69.5l5.22-33.8Zm-50.57,0v33.8h5.321V58.535h1.836a3.331,3.331,0,0,1,2.661.96,5.137,5.137,0,0,1,.825,3.334v5.3c0,.674,0,1.246.017,1.684a8.416,8.416,0,0,0,.1,1.111,4.654,4.654,0,0,0,.168.724,5.472,5.472,0,0,1,.185.623h5.406a7.37,7.37,0,0,1-.488-1.9,20.931,20.931,0,0,1-.1-2.206v-5.22a12.352,12.352,0,0,0-.741-4.513,4.742,4.742,0,0,0-2.779-2.678q3.486-1.642,3.486-6.854V46.242c0-2.61-.623-4.564-1.852-5.843-1.246-1.28-3.25-1.937-6.012-1.937H19.265Zm5.321,4.833h2.56a2.458,2.458,0,0,1,2.054.825,4.287,4.287,0,0,1,.657,2.661v3.334a3.718,3.718,0,0,1-.842,2.8,3.3,3.3,0,0,1-2.341.775H24.586V43.329Z"/>
</svg>
