<svg xmlns="http://www.w3.org/2000/svg" viewBox="0 0 17.397 17.394">
  <defs>
    <style>
      .cls-1 {
        fill: #eeefe7;
      }
    </style>
  </defs>
  <path id="Path_2855" data-name="Path 2855" class="cls-1" d="M5.8,8.7a2.9,2.9,0,1,1,2.9,2.9A2.9,2.9,0,0,1,5.8,8.7m-1.568,0A4.465,4.465,0,1,0,8.7,4.231,4.464,4.464,0,0,0,4.231,8.7M12.3,4.053a1.044,1.044,0,1,0,1.044-1.044A1.044,1.044,0,0,0,12.3,4.053M5.184,15.776a4.835,4.835,0,0,1-1.615-.3,2.687,2.687,0,0,1-1-.651,2.687,2.687,0,0,1-.651-1,4.835,4.835,0,0,1-.3-1.615c-.041-.917-.05-1.192-.05-3.515s.009-2.6.05-3.515a4.835,4.835,0,0,1,.3-1.615,2.687,2.687,0,0,1,.651-1,2.687,2.687,0,0,1,1-.651,4.835,4.835,0,0,1,1.615-.3c.917-.041,1.192-.05,3.515-.05s2.6.009,3.515.05a4.835,4.835,0,0,1,1.615.3,2.687,2.687,0,0,1,1,.651,2.724,2.724,0,0,1,.651,1,4.835,4.835,0,0,1,.3,1.615c.041.917.05,1.192.05,3.515s-.009,2.6-.05,3.515a4.835,4.835,0,0,1-.3,1.615,2.687,2.687,0,0,1-.651,1,2.724,2.724,0,0,1-1,.651,4.835,4.835,0,0,1-1.615.3c-.917.041-1.192.05-3.515.05s-2.6-.009-3.515-.05M5.113.053A6.307,6.307,0,0,0,3,.459a4.238,4.238,0,0,0-1.544,1A4.3,4.3,0,0,0,.456,3,6.414,6.414,0,0,0,.05,5.11C.009,6.039,0,6.335,0,8.7s.009,2.657.053,3.586a6.307,6.307,0,0,0,.405,2.11,4.261,4.261,0,0,0,1,1.541,4.25,4.25,0,0,0,1.541,1,6.414,6.414,0,0,0,2.11.405c.929.041,1.225.053,3.586.053s2.657-.009,3.586-.053a6.307,6.307,0,0,0,2.11-.405,4.3,4.3,0,0,0,1.541-1,4.25,4.25,0,0,0,1-1.541,6.338,6.338,0,0,0,.405-2.11c.041-.929.053-1.225.053-3.586s-.009-2.657-.053-3.586A6.307,6.307,0,0,0,16.938,3a4.3,4.3,0,0,0-1-1.541,4.264,4.264,0,0,0-1.539-1A6.338,6.338,0,0,0,12.287.05C11.355.012,11.06,0,8.7,0S6.039.009,5.113.053"/>
</svg>
